[b][color=black]The.Vampire.Diaries.S03E19.HDTV [H264] [MPEG-4]-Sebastian[Ub3r]

Format                           : MPEG-4
Format profile                   : Base Media / Version 2
Codec ID                         : mp42
File size                        : 144 MiB
Duration                         : 41mn 57s
Overall bit rate                 : 480 Kbps
Encoded date                     : UTC 2012-09-22 08:45:02
Tagged date                      : UTC 2012-09-22 08:54:36

Video
ID                               : 1
Format                           : AVC
Format/Info                      : Advanced Video Codec
Format profile                   : Main@L3.0
Format settings, CABAC           : Yes
Format settings, ReFrames        : 4 frames
Format settings, GOP             : M=4, N=32
Codec ID                         : avc1
Codec ID/Info                    : Advanced Video Coding
Duration                         : 41mn 57s
Bit rate mode                    : Variable
Bit rate                         : 347 Kbps
Width                            : 636 pixels
Height                           : 360 pixels
Display aspect ratio             : 16:9
Frame rate mode                  : Variable
Frame rate                       : 23.976 fps
Minimum frame rate               : 23.974 fps
Maximum frame rate               : 90 000.000 fps
Color space                      : YUV
Chroma subsampling               : 4:2:0
Bit depth                        : 8 bits
Scan type                        : Progressive
Bits/(Pixel*Frame)               : 0.063
Stream size                      : 104 MiB (72%)
Writing library                  : x264 core 120
Encoded date                     : UTC 2012-09-22 08:45:02
Tagged date                      : UTC 2012-09-22 08:54:34

Audio
ID                               : 2
Format                           : AAC
Format/Info                      : Advanced Audio Codec
Format profile                   : LC
Codec ID                         : 40
Duration                         : 41mn 56s
Bit rate mode                    : Variable
Bit rate                         : 128 Kbps
Maximum bit rate                 : 255 Kbps
Channel(s)                       : 2 channels
Channel positions                : Front: L R
Sampling rate                    : 48.0 KHz
Compression mode                 : Lossy
Stream size                      : 38.4 MiB (27%)
Encoded date                     : UTC 2012-09-22 08:45:02
Tagged date                      : UTC 2012-09-22 08:54:33

Snapshots[/color][/b]
[img]http://imageshack.us/a/img11/1605/thevampirediariess03e19.jpg[/img]

[img]http://kastatic.com/i2/users/133df62bbf28e62494bb17fe11078f1a.gif[/img][img]http://kastatic.com/i2/users/133df62bbf28e62494bb17fe11078f1a.gif[/img]